<mxfile host="app.diagrams.net" agent="Mozilla/5.0 (Windows NT 10.0; Win64; x64) AppleWebKit/537.36 (KHTML, like Gecko) Chrome/135.0.0.0 Safari/537.36" version="26.2.10">
  <diagram id="C5RBs43oDa-KdzZeNtuy" name="Page-1">
    <mxGraphModel dx="1647" dy="906" grid="1" gridSize="10" guides="1" tooltips="1" connect="1" arrows="1" fold="1" page="1" pageScale="1" pageWidth="827" pageHeight="1169" math="0" shadow="0">
      <root>
        <mxCell id="WIyWlLk6GJQsqaUBKTNV-0" />
        <mxCell id="WIyWlLk6GJQsqaUBKTNV-1" parent="WIyWlLk6GJQsqaUBKTNV-0" />
        <mxCell id="XcqkJUGEVSf3gRGwsTBn-6" value="" style="edgeStyle=orthogonalEdgeStyle;rounded=0;orthogonalLoop=1;jettySize=auto;html=1;" edge="1" parent="WIyWlLk6GJQsqaUBKTNV-1" source="XcqkJUGEVSf3gRGwsTBn-0" target="XcqkJUGEVSf3gRGwsTBn-1">
          <mxGeometry relative="1" as="geometry" />
        </mxCell>
        <mxCell id="XcqkJUGEVSf3gRGwsTBn-0" value="Start" style="strokeWidth=2;html=1;shape=mxgraph.flowchart.start_1;whiteSpace=wrap;" vertex="1" parent="WIyWlLk6GJQsqaUBKTNV-1">
          <mxGeometry x="340" y="30" width="120" height="70" as="geometry" />
        </mxCell>
        <mxCell id="XcqkJUGEVSf3gRGwsTBn-5" value="" style="edgeStyle=orthogonalEdgeStyle;rounded=0;orthogonalLoop=1;jettySize=auto;html=1;" edge="1" parent="WIyWlLk6GJQsqaUBKTNV-1" source="XcqkJUGEVSf3gRGwsTBn-1" target="XcqkJUGEVSf3gRGwsTBn-4">
          <mxGeometry relative="1" as="geometry" />
        </mxCell>
        <mxCell id="XcqkJUGEVSf3gRGwsTBn-1" value="&lt;div&gt;&lt;span style=&quot;background-color: transparent; color: light-dark(rgb(0, 0, 0), rgb(255, 255, 255));&quot;&gt;dt = 0.002&lt;/span&gt;&lt;/div&gt;&lt;div&gt;&amp;nbsp; omega1 = 10&lt;/div&gt;&lt;div&gt;&amp;nbsp; domega_dt = 1&lt;/div&gt;&lt;div&gt;&amp;nbsp; R = 0.11&lt;/div&gt;&lt;div&gt;&amp;nbsp; S = π*R^2&lt;/div&gt;&lt;div&gt;&amp;nbsp; rho = 1.225&lt;/div&gt;&lt;div&gt;&amp;nbsp; m = 0.43&lt;/div&gt;&lt;div&gt;&amp;nbsp; t = 0:dt:4&lt;/div&gt;&lt;div&gt;&lt;br&gt;&lt;/div&gt;&lt;div&gt;&amp;nbsp; Arrays: u, v, x, y = 0&lt;/div&gt;&lt;div&gt;&amp;nbsp;&amp;nbsp;&lt;/div&gt;&lt;div&gt;u[1] = 25&lt;/div&gt;" style="rounded=1;whiteSpace=wrap;html=1;absoluteArcSize=1;arcSize=14;strokeWidth=2;" vertex="1" parent="WIyWlLk6GJQsqaUBKTNV-1">
          <mxGeometry x="330" y="150" width="140" height="190" as="geometry" />
        </mxCell>
        <mxCell id="XcqkJUGEVSf3gRGwsTBn-8" value="" style="edgeStyle=orthogonalEdgeStyle;rounded=0;orthogonalLoop=1;jettySize=auto;html=1;" edge="1" parent="WIyWlLk6GJQsqaUBKTNV-1" source="XcqkJUGEVSf3gRGwsTBn-4" target="XcqkJUGEVSf3gRGwsTBn-7">
          <mxGeometry relative="1" as="geometry" />
        </mxCell>
        <mxCell id="XcqkJUGEVSf3gRGwsTBn-9" value="Yes" style="edgeLabel;html=1;align=center;verticalAlign=middle;resizable=0;points=[];" vertex="1" connectable="0" parent="XcqkJUGEVSf3gRGwsTBn-8">
          <mxGeometry x="-0.3611" y="4" relative="1" as="geometry">
            <mxPoint x="10" y="-3" as="offset" />
          </mxGeometry>
        </mxCell>
        <mxCell id="XcqkJUGEVSf3gRGwsTBn-4" value="&lt;font style=&quot;&quot;&gt;&lt;font style=&quot;color: light-dark(rgb(236, 236, 236), rgb(255, 255, 255));&quot;&gt;Is 2&lt;/font&gt;&lt;span style=&quot;color: light-dark(rgb(0, 0, 0), rgb(255, 255, 255));&quot;&gt; &lt;span style=&quot;font-family: &amp;quot;Google Sans&amp;quot;, Arial, sans-serif; text-align: start;&quot;&gt;&lt;font style=&quot;&quot;&gt;≤&lt;/font&gt;&lt;/span&gt;&lt;/span&gt;&lt;font style=&quot;color: light-dark(rgb(236, 236, 236), rgb(255, 255, 255));&quot;&gt;&amp;nbsp;&lt;/font&gt;&lt;span style=&quot;color: light-dark(rgb(0, 0, 0), rgb(255, 255, 255)); background-color: transparent;&quot;&gt;i&amp;nbsp;&lt;/span&gt;&lt;span style=&quot;font-family: &amp;quot;Google Sans&amp;quot;, Arial, sans-serif; text-align: start; color: rgb(236, 236, 236);&quot;&gt;&lt;font style=&quot;color: light-dark(rgb(236, 236, 236), rgb(255, 255, 255));&quot;&gt;≤&lt;/font&gt;&lt;/span&gt;&lt;span style=&quot;color: light-dark(rgb(0, 0, 0), rgb(255, 255, 255)); background-color: transparent;&quot;&gt;&amp;nbsp;length of t,&amp;nbsp;&lt;/span&gt;&lt;/font&gt;&lt;div&gt;&lt;div&gt;true?&lt;/div&gt;&lt;/div&gt;" style="strokeWidth=2;html=1;shape=mxgraph.flowchart.decision;whiteSpace=wrap;" vertex="1" parent="WIyWlLk6GJQsqaUBKTNV-1">
          <mxGeometry x="330" y="380" width="140" height="140" as="geometry" />
        </mxCell>
        <mxCell id="XcqkJUGEVSf3gRGwsTBn-7" value="" style="rounded=1;whiteSpace=wrap;html=1;absoluteArcSize=1;arcSize=14;strokeWidth=2;" vertex="1" parent="WIyWlLk6GJQsqaUBKTNV-1">
          <mxGeometry x="350" y="560" width="100" height="100" as="geometry" />
        </mxCell>
      </root>
    </mxGraphModel>
  </diagram>
</mxfile>
